<?xml version="1.0" standalone="no"?>
<!DOCTYPE svg PUBLIC "-//W3C//DTD SVG 20010904//EN"
 "http://www.w3.org/TR/2001/REC-SVG-20010904/DTD/svg10.dtd">
<svg version="1.0" xmlns="http://www.w3.org/2000/svg"
 width="512.000000pt" height="512.000000pt" viewBox="0 0 512.000000 512.000000"
 preserveAspectRatio="xMidYMid meet">
<metadata>
Created by potrace 1.11, written by Peter Selinger 2001-2013
</metadata>
<g transform="translate(0.000000,512.000000) scale(0.100000,-0.100000)"
fill="#000000" stroke="none">
<path d="M95 5106 c-37 -16 -70 -52 -84 -89 -8 -20 -11 -691 -11 -2216 l0
-2187 22 -44 c17 -33 35 -51 68 -67 l44 -23 1372 0 1372 0 4 -117 c3 -101 7
-126 29 -174 33 -71 87 -124 158 -158 l56 -26 875 0 875 0 56 26 c71 33 125
87 158 158 l26 56 0 2387 0 2387 -21 27 c-11 15 -33 37 -48 48 l-27 21 -2447
2 c-2024 2 -2452 0 -2477 -11z m385 -386 l0 -80 -80 0 -80 0 0 80 0 80 80 0
80 0 0 -80z m320 0 l0 -80 -80 0 -80 0 0 80 0 80 80 0 80 0 0 -80z m320 0 l0
-80 -80 0 -80 0 0 80 0 80 80 0 80 0 0 -80z m1983 -739 c-72 -24 -127 -65
-163 -119 -30 -45 -60 -128 -60 -164 0 -17 -44 -18 -1120 -18 l-1120 0 0 -240
0 -240 1120 0 1120 0 0 -80 0 -80 -440 0 -440 0 0 -440 0 -440 440 0 440 0 0
-80 0 -80 -440 0 -440 0 0 -440 0 -440 440 0 440 0 0 -160 0 -160 -1280 0
-1280 0 0 1600 0 1600 1418 0 c1376 -1 1416 -1 1365 -19z m977 -381 l0 -80
-80 0 -80 0 0 80 0 80 80 0 80 0 0 -80z m880 -1600 l0 -1200 -960 0 -960 0 0
1200 0 1200 960 0 960 0 0 -1200z m-666 -1546 c34 -35 34 -73 0 -108 l-27 -26
-267 0 -267 0 -27 26 c-15 16 -26 38 -26 54 0 16 11 38 26 54 l27 26 267 0
267 0 27 -26z"/>
<path d="M640 2600 l0 -440 600 0 600 0 0 440 0 440 -600 0 -600 0 0 -440z"/>
<path d="M640 1560 l0 -440 600 0 600 0 0 440 0 440 -600 0 -600 0 0 -440z"/>
<path d="M3200 2800 l0 -240 800 0 800 0 0 240 0 240 -800 0 -800 0 0 -240z"/>
<path d="M3200 2080 l0 -320 360 0 360 0 0 320 0 320 -360 0 -360 0 0 -320z"/>
<path d="M4080 2080 l0 -320 360 0 360 0 0 320 0 320 -360 0 -360 0 0 -320z"/>
<path d="M3200 1280 l0 -320 360 0 360 0 0 320 0 320 -360 0 -360 0 0 -320z"/>
<path d="M4080 1280 l0 -320 360 0 360 0 0 320 0 320 -360 0 -360 0 0 -320z"/>
</g>
</svg>
